<svg width="30" height="30" viewBox="0 0 30 30" fill="none" xmlns="http://www.w3.org/2000/svg">
<path d="M27.2569 12.5519H26.25V12.5H15V17.5H22.0644C21.0338 20.4106 18.2644 22.5 15 22.5C10.8581 22.5 7.5 19.1419 7.5 15C7.5 10.8581 10.8581 7.5 15 7.5C16.9119 7.5 18.6513 8.22125 19.9756 9.39937L23.5112 5.86375C21.2787 3.78312 18.2925 2.5 15 2.5C8.09688 2.5 2.5 8.09688 2.5 15C2.5 21.9031 8.09688 27.5 15 27.5C21.9031 27.5 27.5 21.9031 27.5 15C27.5 14.1619 27.4137 13.3438 27.2569 12.5519Z" fill="#FFC107"/>
<path d="M15 3C17.9734 3 20.6868 4.08992 22.7837 5.8842L19.9458 8.72206C18.5859 7.64725 16.8703 7 15 7C10.582 7 7 10.582 7 15C7 19.418 10.582 23 15 23C18.4838 23 21.437 20.7699 22.5357 17.6669L22.7718 17H22.0644H15.5V13H25.75V13.0519H26.25H26.8394C26.9438 13.6868 27 14.3372 27 15C27 21.627 21.627 27 15 27C8.37302 27 3 21.627 3 15C3 8.37302 8.37302 3 15 3Z" stroke="black" stroke-opacity="0.25"/>
<path d="M3.94128 9.18188L8.04816 12.1938C9.15941 9.4425 11.8507 7.5 15 7.5C16.9119 7.5 18.6513 8.22125 19.9757 9.39937L23.5113 5.86375C21.2788 3.78312 18.2925 2.5 15 2.5C10.1988 2.5 6.03503 5.21062 3.94128 9.18188Z" fill="#FF3D00"/>
<path d="M22.7837 5.8842L19.9459 8.72206C18.5859 7.64725 16.8704 7 15 7C11.8658 7 9.15819 8.80333 7.84653 11.4258L4.59094 9.03827C6.66129 5.43067 10.5454 3 15 3C17.9734 3 20.6868 4.08992 22.7837 5.8842Z" stroke="black" stroke-opacity="0.25"/>
<path d="M15 27.4999C18.2287 27.4999 21.1625 26.2643 23.3806 24.2549L19.5118 20.9812C18.2147 21.9677 16.6296 22.5012 15 22.4999C11.7487 22.4999 8.98808 20.4268 7.94808 17.5337L3.87183 20.6743C5.94058 24.7224 10.1418 27.4999 15 27.4999Z" fill="#4CAF50"/>
<path d="M22.6114 24.259L19.4871 21.6153C18.1676 22.5168 16.6039 23.0012 14.9996 22.9999M22.6114 24.259L15 22.4999M22.6114 24.259C20.5386 25.967 17.8925 26.9999 15 26.9999C10.4853 26.9999 6.56013 24.5011 4.51189 20.8124M14.9996 22.9999L15 22.4999M14.9996 22.9999C14.9997 22.9999 14.9998 22.9999 15 22.9999V22.4999M14.9996 22.9999C11.77 22.9998 8.99614 21.0827 7.73363 18.3301M15 22.4999C11.9326 22.4999 9.30186 20.6547 8.14079 18.0164L7.73363 18.3301M7.73363 18.3301C7.66192 18.1738 7.5951 18.0148 7.53334 17.8532L7.94808 17.5337M7.73363 18.3301L4.51189 20.8124M4.51189 20.8124C4.44492 20.6918 4.37997 20.5699 4.31706 20.4468L3.87183 20.6743L4.17699 21.0704L4.51189 20.8124Z" stroke="black" stroke-opacity="0.25"/>
<path d="M27.2569 12.5519H26.25V12.5H15V17.5H22.0644C21.5714 18.8853 20.6833 20.0957 19.51 20.9819L19.5119 20.9806L23.3806 24.2544C23.1069 24.5031 27.5 21.25 27.5 15C27.5 14.1619 27.4137 13.3438 27.2569 12.5519Z" fill="#1976D2"/>
<path d="M23.558 23.436C23.4948 23.4982 23.4365 23.5536 23.384 23.6023L20.2931 20.9867C21.3066 20.09 22.0795 18.9489 22.5354 17.6676L22.773 17H22.0644H15.5V13H25.75V13.0519H26.25H26.8394C26.9438 13.6868 27 14.3372 27 15C27 18.0024 25.9459 20.2819 24.9243 21.7829C24.4132 22.5339 23.9116 23.0877 23.558 23.436Z" stroke="black" stroke-opacity="0.25"/>
</svg>
